<?xml version="1.0" encoding="UTF-8"?>
<svg id="Calque_2" data-name="Calque 2" xmlns="http://www.w3.org/2000/svg" viewBox="0 0 974.96 460.04">
  <defs>
    <style>
      .cls-1 {
        letter-spacing: .08em;
      }

      .cls-2 {
        fill: #2a9ed9;
        font-family: BebasNeue-Regular, 'Bebas Neue';
        font-size: 37.97px;
      }

      .cls-3 {
        letter-spacing: .08em;
      }

      .cls-4 {
        fill: #e10d1a;
        stroke-width: 0px;
      }
    </style>
  </defs>
  <g id="Calque_1-2" data-name="Calque 1">
    <g id="Logo">
      <g id="Logo-2" data-name="Logo">
        <g id="Icon">
          <path class="cls-4" d="m242.24,168.87h-88.85c6.19-18.56,20.78-33.6,43.32-33.6s40.67,12.38,45.53,33.6Z"/>
          <path class="cls-4" d="m205.28,344.77l50.93,95.59c3.45,6.46,1,14.49-5.46,17.93l-.37.2c-6.46,3.44-14.49.99-17.94-5.47l-58.28-109.39c.11.02.22.03.33.04l-35.36-66.14c17.9,10.84,39.55,16.88,62.89,16.88,55.96,0,88.15-36.26,90.42-40.77,2.05-4.06,1.01-6.9,1.01-6.9-.51-1.39-1.46-2.34-2.25-2.96-11.09-6.83-22.17-13.66-33.26-20.49-.51-.23-1.4-.56-2.53-.68-3.57-.35-6.48,1.85-7.21,2.37-5.08,3.64-28.38,16.39-42.65,16.39-30.94,0-47.74-15.03-53.49-35.37h143.11c.63-.06,1.64-.24,2.62-.88,0,0,1.13-.74,1.86-2.09.95-1.75,8.55-39.52-16.18-74.91-19.77-28.29-53.93-42.35-88.09-42.35-57.92,0-103.16,41.85-105.13,100.33l-33.33-62.35s.03-.06.04-.09L1.56,19.69C-1.89,13.23.56,5.2,7.02,1.76l.37-.2c6.46-3.44,14.49-.99,17.93,5.47l48.05,90.18c28.15-36.52,72.33-60.05,122.01-60.05,85.03,0,153.96,68.93,153.96,153.96s-63.64,148.54-144.06,153.65Z"/>
        </g>
        <g id="Text">
          <g>
            <path class="cls-4" d="m369.42,190.98l15.83.11c.17-.01,1.08-.05,1.83.63.56.51.71,1.14.75,1.36v36.94c-.04.22-.2.87-.79,1.4-.71.63-1.53.64-1.72.64h-15.83c-.12.01-.91.08-1.55-.51-.66-.6-.65-1.41-.64-1.53v-37.57c.06-.19.22-.64.67-1,.61-.5,1.3-.48,1.47-.47Z"/>
            <path class="cls-4" d="m454.77,140.81v87.32c.04.23.21,1.49-.65,2.62-1.05,1.36-2.71,1.33-2.87,1.32h-18c-.55.02-1.85-.02-3.19-.81-.98-.58-1.56-1.32-1.86-1.76-19.87-29.97-39.75-59.94-59.62-89.91-.34-.38-.44-.91-.26-1.37.22-.58.78-.76.85-.79h19.28c.33.05.75.15,1.19.36,1.08.51,1.67,1.34,1.92,1.76,14.22,21.56,28.45,43.12,42.67,64.67v-64.05c-.01-.27,0-.95.43-1.6.8-1.19,2.32-1.15,2.43-1.15h15.32c.25.03,1.08.18,1.72.89.92,1.02.68,2.34.65,2.49Z"/>
          </g>
          <path class="cls-4" d="m526.61,138.76l-13.89,23.25c-1.59,2.66-3.18,5.33-4.77,7.99-3.52,5.9-7.04,11.81-10.56,17.71l.27,42.71c0,.16.02.58.32.98.47.64,1.24.66,1.34.66h16.79c.15,0,1.04.02,1.66-.66.28-.31.4-.64.46-.85v-42.43l33.14-48.73c.28-.46.27-1.03-.02-1.44-.33-.47-.88-.52-.96-.53h-21c-.26-.03-.89-.06-1.57.28s-1.05.84-1.2,1.06Zm-40.76-1.34h-20.49c-.06,0-.58.06-.87.53-.22.35-.22.8,0,1.16,4.76,7.02,9.51,14.04,14.27,21.06.24.33.81,1.03,1.83,1.48.92.4,1.75.39,2.15.36h17.87c.13-.05.74-.31,1.04-.99.37-.83-.01-1.59-.06-1.69-4.02-6.72-8.03-13.44-12.05-20.15-.32-.36-.94-.95-1.89-1.35-.71-.3-1.36-.38-1.79-.4Z"/>
          <path class="cls-4" d="m680.03,138.98l-19.4,64.15-19.51-64.07c-.12-.25-.37-.65-.81-1.01-.67-.53-1.37-.62-1.66-.64h-12.77c-.24,0-.68.06-1.15.32-.65.37-.95.92-1.05,1.13-6.52,21.42-13.05,42.84-19.57,64.26l-.02-.08-8.29,27.15c-.04.13-.15.58.08,1.05.24.48.76.79,1.34.81h14.55c.23.05.82.16,1.47-.11,1.04-.43,1.36-1.47,1.4-1.62,5.91-19.35,11.82-38.69,17.72-58.04l17.85,58.01c.05.2.24.85.87,1.33.83.62,1.76.46,1.91.43h17.94c.2.01.73.03,1.28-.3.66-.4.89-1.03.94-1.2,10.27-30.35,20.55-60.7,30.82-91.05.02-.07.25-.81-.24-1.46-.42-.56-1.05-.63-1.15-.64h-20.17c-.27.01-.95.08-1.6.57-.45.34-.69.75-.81.98Zm-119.25.21l7.24,21.48c.1.23.41.92,1.19,1.39.84.51,1.68.43,1.91.4,6.17-.02,12.34-.03,18.51-.05.13-.03.8-.2,1.21-.86.46-.73.24-1.49.21-1.6l-6.29-20.8c-.14-.28-.51-.91-1.26-1.34-.45-.25-.87-.35-1.15-.38h-20.17c-.18.07-.61.26-.96.7-.34.43-.42.87-.45,1.06Z"/>
          <path class="cls-4" d="m768.19,138.32v17.43s1.4,1.98,2.08,2.17c11.94,3.23,20.68,13.82,20.68,26.84s-8.85,23.7-20.91,26.89c-.61.16-1.85,2.07-1.85,2.07v16.98s1.52,1.96,2.27,1.84c23.28-3.7,41.04-23.54,41.04-47.77s-17.84-44.18-41.18-47.8c-.71-.11-2.13,1.37-2.13,1.37Zm-54.43,46.43c0,24.24,17.78,44.1,40.99,47.78.77.12,2.32-2.1,2.32-2.1v-16.02s-1.52-2.66-2.27-2.87c-11.8-3.29-20.49-13.94-20.49-26.79s8.97-23.86,21.04-26.95c.57-.14,1.72-2.18,1.72-2.18v-17.17s-1.2-1.66-1.8-1.57c-23.46,3.45-41.51,23.32-41.51,47.87Z"/>
          <path class="cls-4" d="m890.49,232.26h-17.23c-.42-.04-1.16-.17-1.95-.62-.82-.47-1.32-1.07-1.57-1.42-5.06-10.86-10.12-21.73-15.18-32.59h-13.18c.01,10.76.02,21.53.03,32.29.02.12.15.92-.42,1.62-.61.74-1.51.73-1.62.72-5.44-.06-10.88-.13-16.32-.19-.07,0-1.14.12-1.81-.7-.48-.6-.42-1.3-.4-1.45v-46.85c.05-.24.19-.7.57-1.15.49-.57,1.09-.76,1.32-.82h30.56c5.5,0,9.34-1.73,11.75-4.26,1.94-2.03,2.96-4.56,3.19-7.14.04-.39.06-.78.06-1.17v-.15c0-.19-.01-.38-.02-.57-.01-.21-.03-.42-.05-.63-.02-.22-.05-.44-.08-.65-.03-.2-.07-.4-.11-.6-.36-1.8-1.1-3.52-2.29-5.01-.08-.1-.15-.2-.24-.3-2.37-2.84-6.35-4.8-12.21-4.8h-30.37c-.2-.03-.87-.14-1.43-.71-.51-.53-.63-1.13-.66-1.34v-14.43c.09-.25.29-.73.74-1.17.52-.5,1.08-.68,1.34-.74h31.45c15.01,0,34.61,8.52,34.61,31.1,0,12.63-5.91,20.42-13.74,24.86l16.98,36.45c.02.11.2,1.04-.45,1.77-.48.54-1.11.63-1.28.65Z"/>
          <g>
            <path class="cls-4" d="m921.27,181.33l-.03.04v-11.62l-20.55,22.09v38.01c.06.26.21.82.68,1.34.53.59,1.15.8,1.4.87h16.02c.21,0,.88-.01,1.51-.49.79-.61.91-1.49.93-1.66v-39.09h.01s.01.03.01.03l.04-9.57-.03.04Zm-1.73-43.9c-5.65,0-11.31,0-16.96,0-.09,0-.95-.04-1.51.66-.45.55-.4,1.19-.38,1.32v20.74c.08.3.31,1.03.98,1.64.49.45,1,.64,1.3.73h15.57c.3-.04,1-.17,1.68-.73.65-.53.92-1.16,1.02-1.45v-20.62c.02-.19.06-.76-.29-1.34-.47-.76-1.27-.93-1.4-.96Z"/>
            <path class="cls-4" d="m970.63,232.05c-5.43,0-10.94.05-15.19.01-.27,0-1.08,0-1.94-.45,0,0-.77-.41-1.36-1.2-1.38-1.88-21.15-44.9-22.05-46.86-2.95,3.14-5.9,6.29-8.85,9.43.02-7.73.04-15.46.06-23.19,9.51-10.38,19.01-20.77,28.52-31.15.37-.41,2.33-1.22,2.93-1.22h18.51c.78,0,1.28,1.23.75,1.84-9.2,10.67-18.39,21.35-27.59,32.02,9.32,19.63,18.64,39.27,27.96,58.9.3.62-.88,1.87-1.77,1.87Z"/>
          </g>
        </g>
      </g>
      <text class="cls-2" transform="translate(900.69 268.34) scale(1.06 1)"><tspan class="cls-1" x="0" y="0">S</tspan><tspan class="cls-3" x="17.13" y="0">ARL</tspan></text>
    </g>
  </g>
</svg>