<?xml version="1.0" encoding="UTF-8"?>
<svg id="Icone" xmlns="http://www.w3.org/2000/svg" xmlns:xlink="http://www.w3.org/1999/xlink" viewBox="0 0 367.33 362.78">
  <defs>
    <style>
      .cls-1 {
        fill: url(#Dégradé_sans_nom_8);
      }

      .cls-2 {
        fill: url(#Dégradé_sans_nom_8-2);
      }
    </style>
    <linearGradient id="Dégradé_sans_nom_8" data-name="Dégradé sans nom 8" x1="205.07" y1="95.97" x2="97.4" y2="303.66" gradientUnits="userSpaceOnUse">
      <stop offset="0" stop-color="#ef8722"/>
      <stop offset=".66" stop-color="#d03144"/>
      <stop offset="1" stop-color="#75216b"/>
    </linearGradient>
    <linearGradient id="Dégradé_sans_nom_8-2" data-name="Dégradé sans nom 8" x1="232.95" y1="153.66" x2="78.27" y2="274.08" xlink:href="#Dégradé_sans_nom_8"/>
  </defs>
  <path class="cls-1" d="m264.06,87.14l-14.96,14.37-10.17,9.77-16.75,16.09-10.77,10.35v96.71c0,3.58-.67,7-1.88,10.14-3.43,8.88-11.24,15.57-20.78,17.45-1.77.35-3.59.53-5.46.53-1.41,0-2.81-.1-4.16-.31-3.75-.56-7.26-1.85-10.38-3.75,0,0,0,0,0,0-3.57-2.16-6.62-5.09-8.91-8.56-.9-1.36-1.69-2.8-2.35-4.31-1.49-3.43-2.32-7.22-2.32-11.19V68.89s0-.02.02-.02c7.48-2.27,12.92-9.22,12.92-17.44s-5.45-15.18-12.94-17.44c-1.67-.51-3.44-.78-5.28-.78s-3.76.29-5.49.84c-7.38,2.33-12.73,9.23-12.73,17.38s5.34,15.03,12.71,17.37c.01,0,.02.02.02.03v57.09s-14.96-14.37-14.96-14.37l-10.17-9.78-16.75-16.09-10.77-10.35v56.09l10.77,10.35,16.75,16.09v76.57c0,2.41.13,4.79.39,7.14.75,6.91,2.6,13.5,5.34,19.58,1.29,2.84,2.78,5.58,4.44,8.19.42.66.86,1.32,1.32,1.97,3.78,5.48,8.39,10.35,13.64,14.43,1.91,1.48,3.91,2.87,5.98,4.13,1.56.96,3.15,1.84,4.79,2.66,1.96.98,3.97,1.87,6.03,2.64,7.14,2.71,14.89,4.19,22.99,4.19s15.7-1.45,22.79-4.12c1.51-.56,2.99-1.18,4.43-1.85,2.21-1.02,4.35-2.16,6.41-3.42,1.5-.9,2.95-1.87,4.36-2.89,5.95-4.3,11.14-9.58,15.33-15.61.49-.7.96-1.41,1.42-2.14,1.63-2.55,3.09-5.22,4.35-8,2.77-6.07,4.63-12.63,5.4-19.52.28-2.42.42-4.88.42-7.37v-76.83l14.96-14.37,10.77-10.35v-56.09l-10.77,10.35Zm-122.26-35.71c0-2.35,1-4.46,2.6-5.94,1.44-1.34,3.37-2.15,5.49-2.15s3.86.74,5.28,1.96c1.72,1.48,2.81,3.67,2.81,6.13s-1.09,4.64-2.81,6.12c-1.42,1.23-3.26,1.96-5.28,1.96-2.12,0-4.05-.81-5.49-2.15-1.6-1.47-2.6-3.58-2.6-5.93Zm122.26,76.12l-14.96,14.37-10.17,9.77v82.74c0,6.81-1.24,13.32-3.52,19.34-1.4,3.73-3.2,7.26-5.35,10.54-2.26,3.47-4.91,6.67-7.89,9.53-5.28,5.08-12,8.78-12,8.78h0c-1.6.86-3.47,1.77-5.6,2.63-.65.26-3,1.19-5.93,1.99-6.85,1.87-12.91,1.94-14.47,1.94-5.09,0-10.01-.69-14.68-1.99-4.04-1.12-7.89-2.69-11.49-4.65-.97-.53-1.92-1.08-2.85-1.67-3.96-2.48-7.58-5.45-10.77-8.83-2.3-2.42-4.37-5.06-6.19-7.87-2.14-3.3-3.93-6.84-5.32-10.58-2.23-5.96-3.45-12.41-3.45-19.15v-82.48l-10.17-9.78-16.75-16.09v-24.72l16.75,16.09,10.17,9.78,14.96,14.37v92.83c0,.23,0,.45,0,.68.04,2.3.28,4.54.7,6.73.8,4.14,2.25,8.04,4.25,11.6,1.6,2.86,3.56,5.5,5.82,7.85,4.09,4.29,9.17,7.65,14.85,9.71,4.14,1.5,8.61,2.32,13.27,2.32.22,0,.43,0,.65,0h.23c4.76-.11,9.3-1.07,13.49-2.73,5.25-2.08,9.93-5.28,13.76-9.29,2.5-2.61,4.64-5.58,6.34-8.81,1.93-3.66,3.28-7.66,3.95-11.89.21-1.3.35-2.61.42-3.95.04-.73.06-1.47.06-2.2v-91.36l16.75-16.09,10.17-9.77,14.96-14.37v24.72Z"/>
  <path class="cls-2" d="m322.21,140.46c-1.66-3.49-4.4-6.37-7.78-8.21-3.02-1.64-6.55-2.45-10.3-2.13-8.48.73-15.46,7.47-16.47,15.92-.44,3.7.23,7.22,1.73,10.25l-14.57,14-10.77,10.35v60.25l-.05-.05c-.56,16.38-6,31.52-14.91,44.02-3.01,4.22-6.42,8.15-10.17,11.71-2.39,2.28-4.93,4.42-7.59,6.38-2.91,2.16-5.97,4.12-9.16,5.88l-.66.36c-3.24,1.74-6.62,3.27-10.11,4.57-8.76,3.25-18.23,5.03-28.12,5.03s-19.36-1.78-28.12-5.03c-3.14-1.16-6.18-2.52-9.12-4.04-.56-.29-1.11-.59-1.65-.89-2.88-1.59-5.65-3.34-8.3-5.25-2.32-1.67-4.54-3.46-6.66-5.36-3.72-3.32-7.13-6.99-10.17-10.94-9.7-12.59-15.78-28.13-16.64-45.04l-.11-63.06-10.77-10.35-13.35-12.83c1.29-2.69,1.93-5.75,1.74-8.97-.53-8.83-7.56-16.15-16.36-17.01-3.75-.36-7.29.41-10.32,2.02-3.41,1.79-6.18,4.64-7.88,8.12-1.48,3.03-2.15,6.53-1.71,10.21,1,8.44,7.96,15.17,16.43,15.92,3.75.33,7.28-.47,10.3-2.1l21.16,20.33v53.5c0,15.59,3.9,30.27,10.77,43.12,4.43,8.28,10.09,15.8,16.75,22.32,3.17,3.11,6.57,5.98,10.17,8.6,4.67,3.4,9.67,6.38,14.96,8.86,3.48,1.64,7.07,3.06,10.77,4.25,8.86,2.86,18.31,4.4,28.12,4.4s19.26-1.54,28.12-4.4c3.7-1.19,7.29-2.61,10.77-4.25,5.97-2.8,11.58-6.23,16.75-10.2,3.61-2.77,7.01-5.8,10.17-9.07,5.89-6.08,10.93-12.98,14.96-20.51,6.87-12.85,10.77-27.53,10.77-43.12v-52.04l22.46-21.58c3.06,1.61,6.62,2.38,10.4,1.99,8.79-.9,15.78-8.26,16.26-17.09.17-3.18-.46-6.19-1.73-8.85Zm-259.92,15.77s-.02,0-.03,0c-4.55.39-8.41-3.34-8.41-7.9v-.2c.01-4.41,3.55-7.99,7.94-8.06.05,0,.1,0,.14,0,4.41,0,7.99,3.52,8.08,7.91,0,.06,0,.12,0,.18,0,4.35-3.43,7.9-7.74,8.08Zm243.46.13h-.09c-4.4,0-8-3.6-8-8v-.09c0-4.46,3.62-8.08,8.09-8.08.13,0,.27,0,.4.01,4.28.2,7.68,3.74,7.68,8.07,0,.08,0,.16,0,.24-.13,4.36-3.69,7.85-8.08,7.85Z"/>
</svg>